<?xml version="1.0" encoding="utf-8"?>
<!-- Generator: Adobe Illustrator 26.1.0, SVG Export Plug-In . SVG Version: 6.00 Build 0)  -->
<svg version="1.1" id="图层_1" xmlns="http://www.w3.org/2000/svg" xmlns:xlink="http://www.w3.org/1999/xlink" x="0px" y="0px"
	 viewBox="0 0 319.1 52.6" style="enable-background:new 0 0 319.1 52.6;" xml:space="preserve">
<style type="text/css">
	.st0{fill:#FED136;}
</style>
<path class="st0" d="M50.4,6.4C43,15.1,40.3,20.4,40.3,20.4l-5.2,9.7c9.2,2.2,8.6,6.8,8.6,6.8c-0.3,2.6-2.5,2.6-2.5,2.6
	c-0.4,0-0.5-0.3-0.5-0.3c-0.1-0.1,0-0.4,0-0.4c0-0.1,0-0.4,0-0.4c-1-5.3-6.6-6.7-6.6-6.7c-9,17.5-23,17.4-23,17.4
	c-6.6,0.3-8.1-4.8-8.1-4.8c-1.9-4.9,3.8-10,3.8-10c6.4-6,17.1-6,17.1-6c4.2,0,7.2,0.5,7.2,0.5c7.2-12.8,7.5-13.1,7.5-13.1
	c0-0.1-0.1,0-0.1,0l-9.4,10.9c-1.1,1.2-2.3,1.1-2.3,1.1c-0.8,0.1-2.2-1.4-2.2-1.4c-1.4-1.2-1.5-3-1.5-3c-0.1-1.9,1.1-4.1,1.1-4.1
	c2.6-5.6,9.8-11.9,9.8-11.9c2.3-2,2.6-3.1,2.6-3.1l0.1-0.1h-0.3c-6.7,1.4-14.3,10.5-14.3,10.5h1.2c0.3,0,0.3,0.1,0.3,0.1
	c0.1,0.3-0.1,0.4-0.1,0.4L21,16.3c-0.7,0.3-1.5-0.5-1.5-0.5c-1.2-1.5-1.5-2.3-1.5-2.3c-0.4-0.5,0.3-1.2,0.3-1.2
	C27.1,3.4,35.9,2.1,35.9,2.1c0.5-0.1,1.4,0.7,1.4,0.7l0.7,0.8c0.5,0.4,0.4,1.5,0.4,1.5c0,1.6-1.6,3.7-1.6,3.7
	c-3.3,4.2-4.9,5.9-4.9,5.9c-3.3,3.8-4.2,5.6-4.2,5.6c-1.8,3.4-1.5,4.4-1.5,4.4C33,19.4,39.3,12,39.3,12c5.7-6.8,6.8-8.3,6.8-8.3
	C46.8,2.3,47.8,3,47.8,3c1.8,1.1,2.5,2,2.5,2C51,5.6,50.4,6.4,50.4,6.4z M14.8,32c0,0-11.1,4.2-10.8,11.3c0,0,0,3.7,4.9,3.6
	c0,0,12.6,0.5,21.3-16C30.3,30.8,23.2,29,14.8,32z"/>
<path class="st0" d="M51.5,31c-4.2,7-8.6,6.6-8.6,6.6c-1.1-0.1-1.5-0.5-1.5-0.5c-2-1-2-3.7-2-3.7c-0.1-1.1,0.4-2.9,0.4-2.9
	c0.3-1,0.7-2.2,1.5-3.4c0.4-0.8,1.1-1.8,1.9-2.6c0.8-0.8,1.8-1.9,2.9-2.7c0.7-0.5,1.6-1.1,1.6-1.1c0.7-0.4,1.5-0.5,2.3-0.7
	c1,0,1.8,0.7,1.8,0.7c0.7,0.8,1.1,1.8,1.1,1.8c0.1,0.4-0.3,0.5-0.3,0.5c-0.4,0-0.5-0.1-0.5-0.1c-0.1-0.1-0.3-0.1-0.3-0.1
	c-3.6,0.8-7,5.5-7,5.5c-3.7,5.2-2.6,7.7-2.6,7.7c0,0.1,0.4,0.1,0.4,0.1c1.1,0.1,3.4-2,3.4-2c1.1-1.1,4-4.8,4.8-7.2
	c0.5-1.2,0.5-2.3,0.5-2.3c0-0.4-0.3-0.5-0.3-0.5c-0.1-0.1-0.1-0.1-0.1-0.1l0.1-0.1c1.1-0.1,1.8,0.7,1.8,0.7c0.7,0.7,0.5,1.6,0.5,1.6
	C53.4,28,51.5,31,51.5,31z"/>
<path class="st0" d="M65.3,36.6c-0.8,1-1.5,0.8-1.5,0.8c-0.5,0-1.5-0.8-1.5-0.8l-1-0.7c-1.1-0.8-1.1-2.2-1.1-2.2c0-1.4,1-3.3,1-3.3
	c1-1.9,2.9-4.9,2.9-4.9l-0.1-0.1c-7.2,7.5-9,9.8-9,9.8c-1.1,1.5-1.1,1.6-1.1,1.6c-0.1,0.1-0.1,0.4-0.1,0.4c0,0.3-0.3,0.3-0.3,0.3
	c-0.3,0-0.4-0.3-0.4-0.3c-0.7-0.7-1-1.2-1-1.2c-0.5-1.1,0.1-2.5,0.1-2.5c3.8-7,5.3-9.4,5.3-9.4l0,0l-2.3,2.6
	c-2.5,2.9-2.6,3.3-2.6,3.3c-0.3,0.3-0.5,0-0.5,0c-0.3-0.3,0-0.5,0-0.5c4-5.1,5.1-6.3,7.5-9.2c0.3-0.4,0.5-0.1,0.5-0.1
	c0.5,0.3,1.4,0.8,1.4,0.8c0.8,0.5,1.1,1,1.1,1c0.5,0.5,0.1,1.4,0.1,1.4c-3,4.8-3.6,5.7-3.6,5.7c0,0.1,0.1,0.1,0.1,0.1
	c3.6-3.4,5.9-6.1,5.9-6.1l1.9-2c0.4-0.7,0.7-0.7,0.7-0.7c0.3-0.1,0.7,0.3,0.7,0.3c1.6,1.4,1.9,1.9,1.9,1.9c0.5,0.4,0,1.2,0,1.2
	c-6.8,8.2-7.7,11.9-7.7,11.9c0,0.1,0.3,0,0.3,0c1.6,0,8.9-8.9,8.9-8.9c0.1-0.4,0.4-0.1,0.4-0.1c0.4,0,0.1,0.4,0.1,0.4
	C66.8,34.9,65.3,36.6,65.3,36.6z"/>
<path class="st0" d="M81.9,22.8c0,0-2.2,2.3-3.7,5.7c-0.5,1.5-1.1,2.9-1.5,4.1c-1.5,5.1-4.8,4.9-4.8,4.9c-2-0.1-4-2.6-4-2.6
	c-0.1-0.3,0-0.4,0-0.4c0.3-0.3,0.5,0,0.5,0c0.8,0.5,1.8,0.5,1.8,0.5c1.1,0.1,2.2-1.4,2.2-1.4c1-1.6,1.5-3.3,1.5-3.3
	c0.7-1.5,1.5-3.4,1.5-3.4c0.5-1.2,1.1-2.6,1.8-3.8l0,0c-1.1,1.1-2.3,2.5-2.3,2.5c-1.2,1.4-2.6,2.9-3.4,3.7c-4.2,4.8-4.8,5.5-4.8,5.5
	c-0.4,0.5-1,0.1-1,0.1c-0.4-0.4,0-1.1,0-1.1l3.1-3.7l3.7-4.4c1.6-1.9,3.3-3.7,3.3-3.7c1.2-1.4,2.2-2.6,2.3-2.9
	c0.3-0.3,0.5-0.1,0.5-0.1c0.1,0,0.3,0.1,0.3,0.1c2,1.5,2.7,2.2,2.7,2.2c0.5,0.4,0.5,0.8,0.5,0.8C82.3,22.4,81.9,22.8,81.9,22.8z"/>
<path class="st0" d="M89.2,33.8c-1.2,1.5-2.5,2.9-3.4,3.4c-0.5,0.4-1.2,0.4-1.2,0.4c-1.5-0.1-2.7-1.1-2.7-1.1
	c-1.2-0.8-1.6-1.4-1.6-1.4c-1.1-1-1.1-2.6-1.1-2.6c-0.1-2.6,1.6-5.3,1.6-5.3c0.5-0.8,3-5.2,8.3-7.2c0.1,0,0.4,0.1,0.4,0.1
	c1.6,1.1,2.3,2.9,2.3,2.9c0.1,0.1,0.1,0.1,0.1,0.1c0.1,0,0.3,0.3,0.3,0.3c0.3,0.3,0.1,1,0.1,1c-0.5,1.4-1.9,2.7-1.9,2.7
	c-2.3,2.6-4.1,2.3-4.1,2.3c-0.8-0.1-1.9-1.4-1.9-1.4c-1,1.1-1.6,2.6-1.6,2.6c-0.3,0.5-0.5,1.2-0.7,1.8c-0.1,0.4-0.1,0.8-0.3,1.2
	c-0.1,2.2,1.1,2.3,1.1,2.3c1,0.1,3-1.5,3-1.5c1.9-1.5,4-3.4,4-3.4c0.8-0.7,2.6-2.9,3.7-4.1c0.3-0.4,0.5-0.3,0.5-0.3s0.3,0.1,0,0.5
	C93.8,27.6,91.6,31,89.2,33.8z M84.7,27.8c0,0,0.7,0.8,2.5-0.3c0,0,1.6-1.1,3.3-3.7C90.4,23.7,86.6,24.9,84.7,27.8z"/>
<path class="st0" d="M96.5,36.8c-0.5,0.8-1.4,0.8-1.4,0.8c-1.4,0-2.3-1.4-2.3-1.4c-1.6-1.2-1.8-3.1-1.8-3.1c0-1.4,1.1-3.7,1.1-3.7
	c1.9-4.2,6.1-9.6,6.1-9.6c0.1-0.1,0.4-0.1,0.4-0.1c0.1,0,0.5,0.1,0.5,0.1c1.4,1.1,1.8,1.6,1.8,1.6c0.3,0.3,0.3,0.5,0.3,0.5
	c0,0.1-0.3,0.5-0.3,0.5c-3,3.7-4.8,6.7-4.8,6.7c-2.9,4.9-2.6,6.1-2.6,6.1c0.3,0.3,0.5,0,0.5,0c3.7-2.9,8.7-8.9,8.7-8.9l0.3-0.3
	c0.1-0.3,0.4,0,0.4,0c0.3,0.1,0,0.4,0,0.4C98.1,35,96.5,36.8,96.5,36.8z M106,14.1c-3.8,3.8-5.3,4.8-5.3,4.8l-0.4,0.4
	c-0.3,0.1-0.4,0-0.4,0c-0.3-0.1,0.1-1,0.1-1c2.7-5.5,3.4-6.6,3.4-6.6c0.1-0.4,0.4-0.4,0.4-0.4c0.1-0.1,0.5,0.1,0.5,0.1
	c0.1,0.1,0.8,0.5,0.8,0.5c0.7,0.5,1,0.8,1,0.8c0.3,0.3,0.3,0.5,0.3,0.5C106.3,13.7,106,14.1,106,14.1z"/>
<path class="st0" d="M143.4,15.3c-10.7,10.7-10.7,16.8-10.7,16.8c-0.7,3.4,1.6,4.5,1.6,4.5c0.5,0.1,0.4,0.4,0.4,0.4
	c0,0.1-0.5,0.1-0.5,0.1c-4.4-0.5-4.8-5.7-4.8-5.7c-0.4-3,2.3-7.1,2.3-7.1c2.3-3.7,3.1-4.8,3.1-4.8l0.1-0.1l-11.6,13.8
	c-1.8,2-2.5,3-2.5,3c-1.1,1.4-2.2,1.4-2.2,1.4c-1.2,0-2.2-1.1-2.2-1.1c-1.5-1.6-1.5-1.9-1.5-1.9c-0.8-1.2-1-2.6-1-2.6
	c-0.1-2.2,1.6-5.5,1.6-5.5c2.6-5.3,9.6-11.5,9.6-11.5c2.6-2.2,3.4-3.3,3.4-3.3c0.4-0.4,0.4-1,0.4-1c-8.2,1.2-16.8,8.1-16.8,8.1h1.6
	c0.3,0,0.3,0.3,0.3,0.3c0.1,0.3-0.4,0.5-0.4,0.5c-1.4,0.7-2.2,0.7-2.2,0.7c-0.7,0.3-1.5-0.8-1.5-0.8c-1.2-1.8-1.6-2.6-1.6-2.6
	c-0.3-0.5,0.5-1.1,0.5-1.1c12-7.1,18-7.4,18-7.4c2-0.3,3.3,1.5,3.3,1.5c1,1.1,1,2.2,1,2.2c0.3,1.5-2.2,4.2-2.2,4.2
	c-10.4,11.2-11.9,18.3-11.9,18.3c1.6,0.1,10.8-10.1,10.8-10.1L140.7,11c0.4-0.8,1.2-0.1,1.2-0.1c1.6,1.2,2.6,2.5,2.6,2.5
	c0.5,0.4,0,1,0,1C144,14.8,143.4,15.3,143.4,15.3z"/>
<path class="st0" d="M149.8,36.6c-0.8,1-1.5,0.8-1.5,0.8c-0.5,0-1.5-0.8-1.5-0.8l-1-0.7c-1.1-0.8-1.1-2.2-1.1-2.2c0-1.4,1-3.3,1-3.3
	c1-1.9,2.9-4.9,2.9-4.9l-0.1-0.1c-7.2,7.5-9,9.8-9,9.8c-1.1,1.5-1.1,1.6-1.1,1.6c-0.1,0.1-0.1,0.4-0.1,0.4c0,0.3-0.3,0.3-0.3,0.3
	c-0.3,0-0.5-0.3-0.5-0.3c-0.7-0.7-1-1.2-1-1.2c-0.5-1.1,0.1-2.5,0.1-2.5c3.8-7,5.3-9.4,5.3-9.4l0,0l-2.3,2.6
	c-2.5,2.9-2.6,3.3-2.6,3.3c-0.3,0.3-0.5,0-0.5,0c-0.3-0.3,0-0.5,0-0.5c4-5.1,5.1-6.3,7.5-9.2c0.3-0.4,0.5-0.1,0.5-0.1
	c0.5,0.3,1.4,0.8,1.4,0.8c0.8,0.5,1.1,1,1.1,1c0.5,0.5,0.1,1.4,0.1,1.4c-3,4.8-3.6,5.7-3.6,5.7c0,0.1,0.1,0.1,0.1,0.1
	c3.6-3.4,5.9-6.1,5.9-6.1l1.9-2c0.4-0.7,0.7-0.7,0.7-0.7c0.3-0.1,0.7,0.3,0.7,0.3c1.6,1.4,1.9,1.9,1.9,1.9c0.5,0.4,0,1.2,0,1.2
	c-6.8,8.2-7.7,11.9-7.7,11.9c0,0.1,0.3,0,0.3,0c1.6,0,8.9-8.9,8.9-8.9c0.1-0.4,0.4-0.1,0.4-0.1c0.4,0,0.1,0.4,0.1,0.4
	C151.3,34.9,149.8,36.6,149.8,36.6z"/>
<path class="st0" d="M159.1,36.8c-0.5,0.8-1.4,0.8-1.4,0.8c-1.4,0-2.3-1.4-2.3-1.4c-1.6-1.2-1.8-3.1-1.8-3.1c0-1.4,1.1-3.7,1.1-3.7
	c1.9-4.2,6.1-9.6,6.1-9.6c0.1-0.1,0.4-0.1,0.4-0.1c0.1,0,0.5,0.1,0.5,0.1c1.4,1.1,1.8,1.6,1.8,1.6c0.3,0.3,0.3,0.5,0.3,0.5
	c0,0.1-0.3,0.5-0.3,0.5c-3,3.7-4.8,6.7-4.8,6.7c-2.9,4.9-2.6,6.1-2.6,6.1c0.3,0.3,0.5,0,0.5,0c3.7-2.9,8.7-8.9,8.7-8.9l0.3-0.3
	c0.1-0.3,0.4,0,0.4,0c0.3,0.1,0,0.4,0,0.4C160.6,35,159.1,36.8,159.1,36.8z M168.4,14.1c-3.8,3.8-5.3,4.8-5.3,4.8l-0.4,0.4
	c-0.3,0.1-0.4,0-0.4,0c-0.3-0.1,0.1-1,0.1-1c2.7-5.5,3.4-6.6,3.4-6.6c0.1-0.4,0.4-0.4,0.4-0.4c0.1-0.1,0.5,0.1,0.5,0.1
	c0.1,0.1,0.8,0.5,0.8,0.5c0.7,0.5,1,0.8,1,0.8c0.3,0.3,0.3,0.5,0.3,0.5C168.8,13.7,168.4,14.1,168.4,14.1z"/>
<path class="st0" d="M178,26.7c-2,2-3.3,3-3.3,3c-4.1,3-5.3,4.5-5.3,4.5c-1.8,1.9-2,2.6-2,2.6c-0.3,0.8-0.5,0.8-0.5,0.8
	c-0.5,0-1.1-0.7-1.1-0.7l-1.1-1.2c-1.2-1.4-1.2-2.6-1.2-2.6c-0.5-1.9,2.6-7.2,2.6-7.2s1.2-2.2,1.4-3.4c0.1-0.5,0.1-1.1,0-1.8
	c0-0.1,0-0.3,0-0.3c0-0.1,0.4,0,0.4,0c1.8,0.7,2.7,2,2.7,2c0.5,0.5,0.3,1.6,0.3,1.6c-0.1,1.5-1.1,2.9-1.1,2.9
	c-1.1,1.6-1.5,2.3-1.5,2.3c-1.8,2.6-2.2,5.2-2.2,5.2c0,0.5,0.1,1,0.1,1l0,0c0.4-1,1.6-2.3,1.6-2.3c0.5-0.8,1.4-1.5,1.4-1.5
	c0.5-0.7,1.2-1.5,1.6-1.8c1.9-1.9,3.7-4.8,3.7-4.8c0.8-1.4,1.6-2.9,2.2-4.4c0.1-0.8-0.1-1.1-0.1-1.1c-0.1-0.1,0-0.1,0-0.1
	c0.1-0.1,0.3,0,0.3,0c2.7,1.5,2.9,3.7,2.9,3.7C179.8,24.8,178,26.7,178,26.7z"/>
<path class="st0" d="M222.2,27.3c-4.7,5.2-14.7,8.4-14.7,8.4c-6,1.9-11.2,1.9-11.2,1.9c-6.4,0.1-9.5-3.5-9.5-3.5
	c-1.3-1.5-1.6-3.2-1.6-3.2c-0.4-1.2,0.4-2.8,0.4-2.8c0.6-1,1.7-2.2,3.6-3.3c3.3-1.9,6.7-2.2,6.7-2.2c2.2-2.8,4.7-5.7,4.7-5.7
	c1.7-2.2,3.8-4.2,4.9-5.4c-7.9,0-17.3,3.6-17.3,3.6c-0.1,0.1,0.1,0.1,0.1,0.1l1.5,0.4c0.4,0.1,0.4,0.3,0.4,0.3
	c0,0.1-0.3,0.3-0.3,0.3c-1.7,0.4-3.3,0.1-3.3,0.1c-1.2-0.1-1.7-1.6-1.7-1.6c-0.7-1.2-0.7-2.2-0.7-2.2c-0.4-0.6,1-1.2,1-1.2
	c6.1-2.6,15.4-3.6,15.4-3.6c2.8-0.3,5.7-0.4,8.7-0.4c3.9,0,8,1.2,8,1.2c1.7,0.6,3.6,1.3,5.2,2.3c1.2,0.6,2.2,1.9,2.2,1.9
	c0.9,1.2,1.6,2.8,1.9,4.8C226.9,22.6,222.2,27.3,222.2,27.3z M187.1,30.9c0,0,0.1,3.1,5.7,3.1c0,0-2.3-1.2-2.5-3.2
	c0,0-0.1-0.7,0.6-1.3c0,0,0.3-0.3,0.6-0.7l0.7-1l1.5-2.3l0,0C193.8,25.4,186.8,27.7,187.1,30.9z M208.5,11.4L208.5,11.4
	c0,0,0.6,0.4,1.3,1.3c0,0,0.7,1-0.3,1.9c-0.6,0.4-1,1-1.6,1.5c-0.9,0.7-1.7,1.6-2.5,2.3c-0.9,0.9-1.6,1.7-2.3,2.3c0,0-1,1.2-1.7,1.9
	c0.6,0.1,1.3,0.3,1.7,0.4c0,0,1,0.4,1.7,0.7c0.4,0.1,0.7,0.4,1,0.7c0,0,0.7,0.7,1,1.5c0.1,0.3,0.1,0.6,0,0.6c0,0-0.1,0.3-0.4,0.3
	c-0.1,0-0.3-0.1-0.4-0.1c0,0-0.3-0.1-0.4-0.4c-0.6-0.4-1.2-0.7-1.7-1c0,0-1.2-0.6-2.2-0.7c0,0-1.2-0.1-1.7-0.1l0,0
	c-1.2,1.2-2.5,2.9-3.5,4.5c0,0-1.5,2-2.5,3.8c0,0-0.4,0.7,0,1.2c5.8,0.1,14.3-2.9,14.3-2.9c2.9-1.2,6.1-2.5,9.5-4.7
	c4.8-3.1,6-6.3,6-6.3s1.2-2.8,0.7-4.5C222.4,11.3,209.3,11.4,208.5,11.4z"/>
<path class="st0" d="M267.3,11.5c-11.5,13.8-12.1,19.9-12.1,19.9c-0.4,2.9,1.6,3.9,1.6,3.9l0.4,0.1c0.3,0,0.3,0.3,0.3,0.3
	c0,0.1-0.3,0.3-0.3,0.3c-5.2,0.1-5.5-5.2-5.5-5.2c-0.1-1.5,0.6-4.1,0.6-4.1c0.3-0.9,0.7-1.9,1.3-3.2c2-4.1,7.6-11.6,7.6-11.6H261
	c-10.5,11.9-13.5,16.3-13.5,16.3c-2.8,4.2-3.9,6.8-3.9,6.8c-0.3,0.4,0,0.9,0,0.9c0.1,0.1,0,0.4,0,0.4c-0.1,0.3-0.6,0-0.6,0
	c-2.6-1.5-2.6-3.8-2.6-3.8c-0.1-0.9,1.3-3.8,1.3-3.8c5.8-10.9,11.1-18.2,11.1-18.2l-0.1-0.1c-14.7,15.6-17.3,19.2-17.3,19.2
	c-3.3,4.7-3.2,6.4-3.2,6.4c0,0.3,0.3,0.9,0.3,0.9c0.1,0.3-0.1,0.6-0.1,0.6c-0.3,0.3-0.7-0.1-0.7-0.1c-2.5-2.3-2.5-3.9-2.5-3.9
	c-0.7-1,2.6-6,2.6-6c9.5-13.4,10.5-15,10.5-15c2.8-3.9,2.8-5.1,2.8-5.1c0.1-0.3-0.1-0.1-0.1-0.1c-6.4,2.3-12.2,7.1-12.2,7.1
	c-6.5,5.1-8.4,7.7-8.4,7.7c0,0.1,0.9,0.3,0.9,0.3c0.4,0,0.4,0.3,0.4,0.3c0.1,0.1-0.3,0.3-0.3,0.3c-1.9,0.9-3.2-0.3-3.2-0.3
	c-1.7-1.5-2.2-3.1-2.2-3.1c-0.3-0.3,0.4-0.9,0.4-0.9c3.2-2.6,7.3-5.4,7.3-5.4c2.9-2.2,6.4-4.2,9.2-5.5c4.5-2.2,6.5-2.5,6.5-2.5
	c1.3-0.1,2.3,0.7,2.3,0.7l0.9,0.9c1,1,0.6,2.8,0.6,2.8c-0.6,3.6-4.5,8.7-4.5,8.7c-2.3,3.2-3.1,3.8-3.1,3.8l0.1,0.1l10.3-11.8
	l3.3-3.9c0.4-0.7,1.2-0.7,1.2-0.7c0.3-0.1,1,0.4,1,0.4c1.6,1.5,2.2,2,2.2,2c0.7,0.7,0,1.7,0,1.7l-8.9,13.5l0.1,0.1
	C258.8,11.3,262.2,8,262.2,8c0.6-1.2,1.5-0.7,1.5-0.7c1.6,1,2.9,2.3,2.9,2.3C268.3,10.4,267.3,11.5,267.3,11.5z"/>
<path class="st0" d="M291.8,11.1c-3.4,2.7-4.5,3.8-4.5,3.8c-0.3,0.4-0.7,0.1-0.7,0.1c-0.3-0.1,0-0.5,0-0.5c1.4-2.9,2-3.8,2-3.8
	c-6,4.2-9.4,10.7-9.4,10.7c-2.3,4.6-3.7,6.4-3.7,6.4c-2.2,3.1-4.5,4-4.5,4c0.8,0,2.2,0.4,2.2,0.4c3.6,1.1,5.6,1.6,5.6,1.6
	c2.3,0.7,3.8,0.5,3.8,0.5c1.4-0.1,2-1,2-1c0.1-0.1,0.3-0.1,0.3-0.1c0.1,0,0.1,0.1,0.1,0.1c1,4.1-2.6,4.2-2.6,4.2
	c-2.2,0.1-7.5-2.6-7.5-2.6c-2.5-1.4-6.3-1.6-6.3-1.6c-0.7,0-1.8,0.1-1.8,0.1c-0.4,0.1-0.5-0.1-0.5-0.1c-0.1-0.3-0.3-0.4-0.3-0.4
	c0-0.3,0.3-0.4,0.3-0.4c0.7-0.5,1.8-0.8,1.8-0.8c0.8-0.4,2.3-2.3,2.3-2.3c0.7-0.8,1.5-1.8,2.3-3.1c1.6-2.5,2.5-4.9,2.5-4.9
	c3.6-7.1,6.8-10.5,6.8-10.5c3-3.3,5.7-3.7,5.7-3.7c0.7-0.1,1.4,0.4,1.4,0.4c1.6,1.2,2.6,2.6,2.6,2.6
	C292.5,10.5,291.8,11.1,291.8,11.1z"/>
<path class="st0" d="M301,28.3c0,0-1.8,2.2-6,8.6c0,0-0.4,0.7-1.2,0.7c-0.3,0-0.5-0.1-0.8-0.3c0,0-0.3-0.1-0.5-0.4
	c-1.2-1.2-1.2-2.6-1.2-2.6c-0.1-1.6,0.7-3.3,0.7-3.3c0.5-1.2,1.5-2.9,1.5-2.9h0c-1.9,2.5-3.3,4.5-3.3,4.5c-1.4,1.9-1.8,2.7-1.8,2.7
	l-0.5,1c-0.3,0.7-0.7,0.8-0.7,0.8c-0.4,0.1-0.8-0.1-0.8-0.1c-1.8-1.2-2.3-2-2.3-2c-0.5-0.7-0.5-1.8-0.5-1.8c-0.3-4,3.6-8.5,3.6-8.5
	c2.7-3.3,6.8-5.1,6.8-5.1l0.1-0.1c0.1-0.1,0.3-0.1,0.3-0.1c0.1,0,0.3,0,0.3,0c1.8,0.8,2.9,3.6,2.9,3.6c0.1,0.4,0.1,0.7,0.1,0.7
	c0,0.1-0.1,0.3-0.1,0.3c-0.1,0-0.3-0.1-0.3-0.1l-0.5-0.7c0,0-0.1-0.1-0.3-0.1c-0.1,0-0.3,0-0.3,0c-3.3,1.2-5.7,3.7-5.7,3.7
	c-4.4,3.7-4.2,8.5-4.2,8.5c0,0.1,0.1,0,0.1,0c6.1-6.7,7.7-8.3,7.7-8.3l1.9-2c0.4-0.4,0.8,0,0.8,0c0.4,0.4,0.8,0.7,0.8,0.7
	c0.3,0.3,0.7,0.5,0.7,0.5c1,0.7,0.3,1.4,0.3,1.4c-0.4,0.5-2.3,3.6-2.3,3.6c-0.7,1.2-2,3.6-2.2,4.2c0,0.3,0,0.1,0,0.1
	s0.7-0.4,3.6-3.6c0.8-0.8,3.3-3.7,3.4-4c0,0,0.3-0.3,0.4,0C301.1,27.8,301.2,27.9,301,28.3z"/>
<path class="st0" d="M314.1,26c-2.2,4.9-5.3,7.9-5.3,7.9c-3.7,3.8-6.7,3.7-6.7,3.7c-2,0-3-1.6-3-1.6c-0.7-1.4-0.7-2.9-0.7-2.9
	c0-2.6,1.5-5.2,1.5-5.2c2.2-3.6,3.3-4.9,3.3-4.9c3.1-4.8,4.5-7,4.5-7c3-4.8,3.1-5.6,3.1-5.6c0.1-0.5,0.1-0.8,0.1-0.8
	c-0.1-0.3-0.3-0.4-0.3-0.4V9l0,0c0-0.1,0.3,0,0.3,0c0.7,0.1,1.8,1,1.8,1c1.5,1.1,1.4,2.5,1.4,2.5c0.1,1.1-0.7,2.2-0.7,2.2
	c-4.8,6.3-6.1,8.2-6.1,8.2l0,0c2-1.8,3.6-2.3,3.6-2.3c0.4-0.3,0.7-0.1,0.7-0.1c0.1,0,0.4,0.1,0.4,0.1c1.2,0.4,1.8,1,1.8,1
	c1,0.7,0.8,2.2,0.8,2.2C314.5,25,314.1,26,314.1,26z M302.9,29.5c-2.2,3-2.3,4.9-2.3,4.9c-0.1,1.4,0.3,1.8,0.3,1.8
	c2.6,0.5,7.1-6.3,7.1-6.3c3.1-5.3,3.3-8.2,3.3-8.2C306.6,24.2,302.9,29.5,302.9,29.5z"/>
<circle class="st0" cx="177.5" cy="35.5" r="2.1"/>
</svg>
