<?xml version="1.0" encoding="utf-8"?>
<!-- Generator: Adobe Illustrator 26.1.0, SVG Export Plug-In . SVG Version: 6.00 Build 0)  -->
<svg version="1.1" id="图层_1" xmlns="http://www.w3.org/2000/svg" xmlns:xlink="http://www.w3.org/1999/xlink" x="0px" y="0px"
	 viewBox="0 0 235 235" style="enable-background:new 0 0 235 235;" xml:space="preserve">
<style type="text/css">
	.st0{fill:#FEC803;}
</style>
<g>
	<g>
		<path class="st0" d="M95.71,219.28H48.39c-19.81,0-35.93-16.12-35.93-35.93V46.21c0-19.81,16.12-35.93,35.93-35.93h94.14
			c19.81,0,35.93,16.12,35.93,35.93v28.5c0,3.31-2.69,6-6,6s-6-2.69-6-6v-28.5c0-13.2-10.74-23.93-23.93-23.93H48.39
			c-13.2,0-23.93,10.74-23.93,23.93v137.14c0,13.2,10.74,23.93,23.93,23.93h47.32c3.31,0,6,2.69,6,6S99.02,219.28,95.71,219.28z"/>
	</g>
</g>
<g>
	<g>
		<path class="st0" d="M114.96,212.77c-1.59,0-3.11-0.63-4.24-1.76c-1.18-1.18-1.82-2.81-1.75-4.48l1.41-35.35
			c0.06-1.51,0.69-2.94,1.75-4l69.33-69.33c4.15-4.15,9.66-6.43,15.52-6.43s11.37,2.28,15.52,6.43l11.39,11.39
			c4.15,4.14,6.43,9.66,6.43,15.52c0,5.86-2.28,11.37-6.43,15.52l-69.33,69.33c-1.07,1.07-2.5,1.69-4,1.75l-35.36,1.41
			C115.12,212.77,115.04,212.77,114.96,212.77z M150.32,205.36L150.32,205.36L150.32,205.36z M122.28,174l-1.06,26.52l26.52-1.06
			l67.67-67.67c1.88-1.88,2.91-4.38,2.91-7.03c0-2.66-1.03-5.16-2.91-7.03l-11.39-11.39c-1.88-1.88-4.38-2.91-7.03-2.91
			s-5.16,1.04-7.03,2.91L122.28,174z"/>
	</g>
</g>
<g>
	<g>
		<path class="st0" d="M148.96,63.28H42.46c-3.31,0-6-2.69-6-6s2.69-6,6-6h106.5c3.31,0,6,2.69,6,6S152.27,63.28,148.96,63.28z"/>
	</g>
</g>
<g>
	<g>
		<path class="st0" d="M148.96,103.28H42.46c-3.31,0-6-2.69-6-6s2.69-6,6-6h106.5c3.31,0,6,2.69,6,6S152.27,103.28,148.96,103.28z"
			/>
	</g>
</g>
<g>
	<g>
		<path class="st0" d="M114.96,142.28h-72.5c-3.31,0-6-2.69-6-6s2.69-6,6-6h72.5c3.31,0,6,2.69,6,6S118.27,142.28,114.96,142.28z"/>
	</g>
</g>
</svg>
