<?xml version="1.0" encoding="utf-8"?>
<!-- Generator: Adobe Illustrator 26.1.0, SVG Export Plug-In . SVG Version: 6.00 Build 0)  -->
<svg version="1.1" id="图层_1" xmlns="http://www.w3.org/2000/svg" xmlns:xlink="http://www.w3.org/1999/xlink" x="0px" y="0px"
	 viewBox="0 0 235 235" style="enable-background:new 0 0 235 235;" xml:space="preserve">
<style type="text/css">
	.st0{fill:#FEC803;}
</style>
<g>
	<g>
		<path class="st0" d="M138.64,25.53c5.56,0,10.98,3.58,12.54,9.73l0.96,3.8c1.48,5.85,6.74,9.72,12.48,9.72
			c1.16,0,2.34-0.16,3.51-0.49l3.77-1.06c1.21-0.34,2.4-0.5,3.56-0.5c8.18,0,14.74,7.91,12.34,16.4l-1.06,3.77
			c-1.97,6.98,2.2,14.21,9.23,15.99l3.8,0.96c9.76,2.48,13.04,14.7,5.82,21.72l-2.81,2.73c-5.2,5.06-5.2,13.41,0,18.47l2.81,2.73
			c7.22,7.03,3.94,19.25-5.82,21.72l-3.8,0.96c-7.03,1.78-11.2,9.01-9.23,15.99l1.06,3.77c2.4,8.49-4.16,16.4-12.34,16.4
			c-1.16,0-2.36-0.16-3.56-0.5l-3.77-1.06c-1.17-0.33-2.35-0.49-3.51-0.49c-5.74,0-11,3.87-12.48,9.72l-0.96,3.8
			c-1.56,6.15-6.98,9.73-12.54,9.73c-3.27,0-6.58-1.23-9.18-3.91l-2.73-2.81c-2.53-2.6-5.88-3.9-9.23-3.9s-6.7,1.3-9.23,3.9
			l-2.73,2.81c-2.6,2.67-5.91,3.91-9.18,3.91c-5.56,0-10.98-3.58-12.54-9.73l-0.96-3.8c-1.48-5.85-6.74-9.72-12.48-9.72
			c-1.16,0-2.34,0.16-3.51,0.49l-3.77,1.06c-1.21,0.34-2.4,0.5-3.56,0.5c-8.18,0-14.74-7.91-12.34-16.4l1.06-3.77
			c1.97-6.98-2.2-14.21-9.23-15.99l-3.8-0.96c-9.76-2.48-13.04-14.7-5.82-21.72l2.81-2.73c5.2-5.06,5.2-13.41,0-18.47l-2.81-2.73
			c-7.22-7.03-3.94-19.25,5.82-21.72l3.8-0.96c7.03-1.78,11.2-9.01,9.23-15.99l-1.06-3.77c-2.4-8.49,4.16-16.4,12.34-16.4
			c1.16,0,2.36,0.16,3.56,0.5l3.77,1.06c1.17,0.33,2.35,0.49,3.51,0.49c5.74,0,11-3.87,12.48-9.72l0.96-3.8
			c1.56-6.15,6.98-9.73,12.54-9.73c3.27,0,6.58,1.23,9.18,3.91l2.73,2.81c2.53,2.6,5.88,3.9,9.23,3.9s6.7-1.3,9.23-3.9l2.73-2.81
			C132.06,26.77,135.38,25.53,138.64,25.53 M138.64,14.32c-6.52,0-12.63,2.59-17.21,7.3l-2.73,2.81c-0.41,0.42-0.88,0.51-1.2,0.51
			s-0.79-0.09-1.2-0.51l-2.73-2.81c-4.58-4.71-10.69-7.3-17.21-7.3c-11.07,0-20.69,7.48-23.41,18.18l-0.96,3.8
			c-0.22,0.87-0.99,1.27-1.62,1.27c-0.15,0-0.31-0.02-0.46-0.07l-3.77-1.06c-2.17-0.61-4.39-0.92-6.61-0.92
			c-7.46,0-14.63,3.59-19.18,9.6c-4.58,6.05-6.02,13.73-3.95,21.06l1.06,3.77c0.16,0.56,0,1.01-0.16,1.29
			c-0.16,0.28-0.47,0.64-1.04,0.79l-3.8,0.96c-8.45,2.14-15.1,8.7-17.35,17.12s0.22,17.42,6.47,23.5l2.81,2.73
			c0.42,0.41,0.51,0.88,0.51,1.2s-0.09,0.79-0.51,1.2l-2.81,2.73c-6.24,6.08-8.72,15.08-6.47,23.5s8.9,14.98,17.35,17.12l3.8,0.96
			c0.57,0.14,0.88,0.51,1.04,0.79c0.16,0.28,0.32,0.73,0.16,1.29l-1.06,3.77c-2.07,7.33-0.63,15.01,3.95,21.06
			c4.55,6.01,11.72,9.6,19.18,9.6c2.22,0,4.44-0.31,6.61-0.92l3.77-1.06c0.16-0.04,0.31-0.07,0.46-0.07c0.62,0,1.4,0.4,1.62,1.27
			l0.96,3.8c2.71,10.7,12.34,18.18,23.41,18.18c6.52,0,12.63-2.59,17.21-7.3l2.73-2.81c0.41-0.42,0.88-0.51,1.2-0.51
			s0.79,0.09,1.2,0.51l2.73,2.81c4.58,4.71,10.69,7.3,17.21,7.3c11.07,0,20.69-7.48,23.41-18.18l0.96-3.8
			c0.22-0.87,0.99-1.27,1.62-1.27c0.15,0,0.31,0.02,0.46,0.07l3.77,1.06c2.17,0.61,4.39,0.92,6.61,0.92c7.46,0,14.63-3.59,19.18-9.6
			c4.58-6.05,6.02-13.73,3.95-21.06l-1.06-3.77c-0.16-0.56,0-1.01,0.16-1.29s0.47-0.64,1.04-0.79l3.8-0.96
			c8.45-2.14,15.1-8.7,17.35-17.12c2.26-8.42-0.22-17.42-6.47-23.5l-2.81-2.73c-0.42-0.41-0.51-0.88-0.51-1.2s0.09-0.79,0.51-1.2
			l2.81-2.73c6.24-6.08,8.72-15.08,6.47-23.5c-2.26-8.42-8.9-14.98-17.35-17.12l-3.8-0.96c-0.57-0.14-0.88-0.51-1.04-0.79
			s-0.32-0.73-0.16-1.29l1.06-3.77c2.07-7.33,0.63-15.01-3.95-21.06c-4.55-6.01-11.72-9.6-19.18-9.6c-2.22,0-4.44,0.31-6.61,0.92
			l-3.77,1.06c-0.16,0.04-0.31,0.07-0.46,0.07c-0.62,0-1.4-0.4-1.62-1.27l-0.96-3.8C159.34,21.8,149.71,14.32,138.64,14.32
			L138.64,14.32z"/>
	</g>
</g>
<g>
	<g>
		<path class="st0" d="M117.5,186.47c-38.02,0-68.94-30.93-68.94-68.94s30.93-68.94,68.94-68.94s68.94,30.93,68.94,68.94
			S155.52,186.47,117.5,186.47z M117.5,59.47c-32.01,0-58.06,26.04-58.06,58.06s26.04,58.06,58.06,58.06s58.06-26.04,58.06-58.06
			S149.51,59.47,117.5,59.47z"/>
	</g>
</g>
<g>
	<g>
		<path class="st0" d="M135.89,147.54c-0.75,0-1.5-0.18-2.19-0.54l-16.2-8.52L101.31,147c-1.61,0.84-3.51,0.7-4.97-0.36
			s-2.18-2.83-1.87-4.61L97.56,124l-13.1-12.77c-1.3-1.27-1.75-3.12-1.19-4.84c0.56-1.72,2.02-2.95,3.81-3.2l18.1-2.63l8.1-16.41
			c0.8-1.62,2.42-2.63,4.23-2.63s3.42,1.01,4.23,2.62l8.1,16.41l18.11,2.63c1.78,0.26,3.24,1.48,3.8,3.2
			c0.56,1.72,0.11,3.57-1.19,4.83L137.44,124l3.09,18.03c0.31,1.78-0.41,3.54-1.87,4.61C137.83,147.24,136.87,147.54,135.89,147.54z
			 M131.73,143.54C131.73,143.54,131.73,143.54,131.73,143.54L131.73,143.54z M103.27,143.53L103.27,143.53
			C103.27,143.54,103.27,143.53,103.27,143.53z M115.54,137.45C115.54,137.45,115.54,137.45,115.54,137.45L115.54,137.45z
			 M119.47,137.45C119.46,137.45,119.46,137.45,119.47,137.45L119.47,137.45C119.46,137.45,119.46,137.45,119.47,137.45z
			 M96.81,110.79l8.57,8.35c1.11,1.08,1.62,2.64,1.36,4.16l-2.03,11.81l10.59-5.57c1.38-0.72,3.02-0.72,4.39,0l10.59,5.57
			l-2.02-11.8c-0.26-1.54,0.25-3.09,1.35-4.17l8.57-8.36l-11.85-1.72c-1.52-0.22-2.85-1.18-3.54-2.56l-5.31-10.75l-5.3,10.73
			c-0.7,1.4-2.02,2.36-3.55,2.58L96.81,110.79z M117.38,133.5L117.38,133.5L117.38,133.5z M146.64,112.02c0,0,0.01,0,0.01,0
			L146.64,112.02z M88.37,112.02l-0.01,0C88.36,112.02,88.37,112.02,88.37,112.02z"/>
	</g>
</g>
</svg>
